PathFileType	4	(X/Y/Z)	s07c0103.trc
DataRate	CameraRate	NumFrames	NumMarkers	Units	OrigDataRate	OrigDataStartFrame	OrigNumFrames
200	200	6	47	mm	200	1250	2000
Frame#	Time	racr			lacr			c7			jug			rlel			rdr			llel			ldr			s2			lic			ric			lasi			rasi			rpsi			lpsi			rgt			lgt			rth1			rth2			rth3			rth4			rlfc			rmfc			rsh1			rsh2			rsh3			rsh4			rcal			rtoe			rmt5			lth1			lth2			lth4			lth3			llfc			lmfc			lsh1			lsh2			lsh3			lsh4			llmal			lcal			ltoe			lmt5			SBIKE			LBIKE			RBIKE			
		X1	Y1	Z1	X2	Y2	Z2	X3	Y3	Z3	X4	Y4	Z4	X5	Y5	Z5	X6	Y6	Z6	X7	Y7	Z7	X8	Y8	Z8	X9	Y9	Z9	X10	Y10	Z10	X11	Y11	Z11	X12	Y12	Z12	X13	Y13	Z13	X14	Y14	Z14	X15	Y15	Z15	X16	Y16	Z16	X17	Y17	Z17	X18	Y18	Z18	X19	Y19	Z19	X20	Y20	Z20	X21	Y21	Z21	X22	Y22	Z22	X23	Y23	Z23	X24	Y24	Z24	X25	Y25	Z25	X26	Y26	Z26	X27	Y27	Z27	X28	Y28	Z28	X29	Y29	Z29	X30	Y30	Z30	X31	Y31	Z31	X32	Y32	Z32	X33	Y33	Z33	X34	Y34	Z34	X35	Y35	Z35	X36	Y36	Z36	X37	Y37	Z37	X38	Y38	Z38	X39	Y39	Z39	X40	Y40	Z40	X41	Y41	Z41	X42	Y42	Z42	X43	Y43	Z43	X44	Y44	Z44	X45	Y45	Z45	X46	Y46	Z46	X47	Y47	Z47	
1250	6.2500	493.427879	1401.649753	-71.503275	522.866002	1393.320782	-330.475319	465.966472	1443.740584	-207.824195	432.105686	1298.115116	-219.701231	514.773468	1082.006521	76.304954	716.323821	914.471028	-64.794451	519.185625	1102.540732	-530.693828	718.603025	910.230886	-423.903691	-120.075919	1196.317079	-266.485006	62.050329	1241.822106	-386.502244	34.284181	1250.475068	-101.364288	85.114344	1169.392889	-358.209637	47.739840	1198.264063	-112.686422	-99.662965	1239.339279	-215.261048	-73.587186	1243.425170	-319.910072	-24.391486	1118.555873	-58.760307	7.214817	1088.663814	-421.021075	111.149052	1010.076859	-56.010815	184.265081	963.320922	-69.019449	226.583190	889.162314	-73.120936	208.137802	987.967333	-84.289433	309.906451	789.294403	-107.454328	294.140062	769.034400	-208.250945	274.599955	651.473272	-77.101136	274.536175	563.466694	-94.749305	235.447712	486.040513	-85.849669	286.393512	563.645982	-132.846151	145.160722	284.748281	-108.454642	423.216875	368.550788	-127.443309	364.211140	308.913455	-55.902524	91.693195	1004.843105	-423.354897	173.877960	972.130188	-420.970473	194.339048	999.080034	-408.500664	229.060148	901.835353	-418.073261	340.723306	767.436292	-385.049861	326.408750	748.167357	-286.948039	231.215096	666.444262	-405.095376	184.815635	595.481665	-388.380575	105.576472	553.227666	-395.639059	190.383798	593.335783	-346.610120	2.117575	471.996501	-396.832085	-72.702579	490.287385	-361.490092	117.591747	272.688029	-360.173374	42.933479	311.472651	-421.763640	-261.899454	965.131778	-236.881004	-82.724443	78.740206	-436.435544	-82.957658	78.914443	-39.304324	
1251	6.2550	493.904968	1402.805710	-72.260077	520.784812	1397.255723	-331.677845	464.376737	1446.644278	-208.650418	431.230989	1300.963754	-221.881084	516.308493	1083.339166	76.242642	716.880692	914.659297	-65.035081	521.198295	1105.133671	-530.037768	719.075531	910.343278	-423.876017	-119.955451	1195.432790	-264.117879	61.365348	1242.976722	-384.527278	35.490891	1247.868457	-99.401460	85.045728	1170.331466	-356.570331	48.719032	1195.836266	-110.362125	-99.528568	1237.954728	-212.031179	-74.136711	1242.930169	-317.128903	-23.610739	1115.765089	-57.132632	8.252881	1089.631973	-419.953971	109.870476	1005.297558	-55.146680	181.768152	956.818086	-68.959664	222.310293	881.692040	-73.333764	205.957977	980.828995	-84.775176	302.559398	779.602257	-107.523940	284.742669	759.385098	-209.949897	268.500952	641.602296	-76.788343	269.719830	553.060081	-94.742732	231.698203	475.235094	-85.993599	282.124431	553.220713	-132.699667	144.330022	272.798813	-108.533508	421.618644	358.262355	-128.108618	363.340098	298.678780	-55.905066	93.878696	1007.413139	-422.907307	176.765646	976.660488	-420.428910	196.631259	1004.060430	-407.894124	233.576417	907.775713	-417.648095	347.993913	775.601933	-384.630860	333.906625	756.133352	-286.535420	238.215594	675.035744	-404.657809	191.257828	604.459082	-388.161280	111.666386	562.994291	-395.530135	196.976085	602.252141	-346.499771	7.871108	482.654406	-396.969185	-65.668020	502.712843	-361.451229	117.885395	280.383819	-360.490858	44.246593	321.171364	-421.787300	-261.883495	965.278647	-236.847752	-82.741534	78.932586	-436.554893	-82.950412	78.908485	-39.284745	
1252	6.2600	494.344439	1404.114947	-73.158905	518.629853	1401.119540	-332.800800	462.784168	1449.587362	-209.418022	430.209691	1303.891896	-223.919310	518.052293	1084.872895	76.146313	717.341680	914.797728	-65.347963	523.273625	1107.713700	-529.265843	719.330241	910.457005	-423.723738	-119.816910	1194.862178	-261.730178	60.402813	1244.421623	-382.263880	35.987572	1245.834706	-97.039250	84.698704	1171.328788	-354.639896	49.803788	1193.855812	-108.192850	-99.777416	1237.329343	-208.750031	-74.572690	1242.999625	-314.986313	-22.691603	1113.330327	-55.723714	9.099743	1090.993783	-419.052438	108.696894	1001.351466	-54.618942	179.203219	950.996451	-69.045387	217.865918	874.953385	-73.597694	203.749342	974.322860	-85.379863	295.026882	769.780204	-108.454453	278.053835	750.428949	-209.777866	263.062811	631.541898	-77.224166	265.451232	543.155623	-95.216572	228.411559	464.916244	-86.532713	277.654754	543.549216	-133.281095	142.363500	262.462104	-107.713569	420.223305	347.448020	-128.453567	361.986720	288.453300	-55.978857	95.895703	1010.262840	-422.214995	179.458568	981.246674	-419.676636	198.744517	1009.230362	-407.492150	237.829128	913.867025	-416.971039	355.282603	784.689443	-385.045910	341.057622	765.019241	-285.956469	245.106892	684.127934	-404.241527	197.952634	613.746721	-387.893870	117.855826	572.505363	-395.064048	203.407919	611.337285	-346.355708	14.087065	492.888982	-396.885901	-59.158947	515.540503	-361.514622	118.854408	288.258459	-360.715828	46.318643	330.896119	-421.762972	-261.852622	965.286082	-236.604502	-82.706529	78.822222	-436.382279	-82.935054	78.921322	-39.291352	
1253	6.2650	494.684274	1405.512791	-74.122042	516.332109	1405.082228	-334.024505	461.208823	1452.642464	-210.052092	428.894654	1307.015860	-225.842598	519.822860	1086.444052	76.007419	717.621740	914.907463	-65.561656	525.401064	1110.251849	-528.219361	719.494913	910.635045	-423.686029	-119.433324	1194.490951	-259.388114	59.380816	1246.243884	-380.334591	37.288261	1244.037977	-95.232325	84.423233	1172.819261	-353.324669	51.102570	1192.426822	-106.266742	-99.586551	1236.842769	-205.868154	-75.302048	1243.266417	-312.185004	-21.624880	1111.274047	-54.183041	9.682857	1092.782922	-418.142350	107.410228	997.646088	-54.380292	176.583639	945.601195	-69.414261	213.345584	868.645427	-74.008596	201.508608	968.271664	-86.224394	288.182697	760.832711	-109.655674	268.382304	742.694868	-211.132331	257.869381	622.187778	-77.944085	261.335379	533.863654	-96.260509	225.482086	455.168834	-87.037510	272.363253	534.728021	-134.674881	140.363263	252.271021	-108.051685	418.623941	336.833656	-128.379904	359.281797	277.803659	-56.732026	97.656297	1013.180378	-420.887127	181.752498	985.911267	-418.375421	200.633909	1014.880537	-407.589455	241.799253	920.088470	-416.080398	362.225883	793.722806	-384.547018	348.539741	773.896910	-285.676182	252.107800	693.518548	-403.785229	204.681149	623.139313	-387.516480	124.478854	582.299233	-394.902629	210.227437	620.693416	-345.924321	20.729972	503.072341	-397.032131	-51.662127	527.908039	-361.992560	120.442779	296.008682	-360.830784	49.012202	340.506079	-421.762482	-261.728038	965.331480	-236.568237	-82.671806	78.844953	-436.389030	-82.918541	78.913040	-39.265933	
1254	6.2700	495.018671	1406.968534	-75.256807	514.069955	1408.866548	-335.275664	459.737651	1455.616531	-210.583966	427.515164	1310.098181	-227.579698	521.943311	1088.528876	76.193840	717.770989	915.074403	-65.654770	527.246746	1112.766911	-527.186924	719.603210	910.755803	-423.682901	-119.625591	1194.728903	-256.727791	58.008011	1248.386149	-378.261538	38.484247	1242.999791	-93.124878	83.908956	1174.633346	-351.984114	52.429980	1191.771676	-104.612035	-98.825195	1236.461697	-203.070567	-75.417217	1243.707931	-309.542460	-20.596520	1109.726222	-52.877123	10.134612	1094.995669	-417.392743	106.132349	993.927306	-54.439939	173.963519	940.245999	-69.881194	209.100592	862.442313	-74.552591	199.230710	962.216915	-87.151806	281.085615	752.424247	-110.634808	260.756150	733.672166	-211.244779	252.811024	613.219347	-79.108017	256.915391	525.216641	-97.323497	222.330374	446.025630	-87.433768	266.985024	526.303373	-136.657454	137.518858	242.874367	-107.730708	416.413575	327.145164	-127.789363	356.534356	267.632534	-56.858662	99.372134	1016.570473	-419.738596	183.979002	991.083649	-417.721920	202.459211	1020.582116	-407.766959	245.218023	926.347633	-414.519548	368.875605	803.454702	-384.281508	355.528466	784.273535	-284.011928	258.862485	703.080296	-402.759716	211.552200	632.909368	-387.249773	131.310927	592.073164	-394.820617	217.120574	630.409620	-345.615517	27.789944	512.971247	-397.256666	-44.005842	539.345431	-361.665295	121.995290	302.529587	-359.358320	52.353139	350.593886	-422.413243	-261.641339	965.342674	-236.546880	-82.576334	78.909675	-436.393538	-82.915076	78.930969	-39.251804	
1255	6.2750	495.319029	1408.429111	-76.496729	511.772130	1412.588742	-336.538627	458.352633	1458.538819	-211.067900	426.032200	1313.175531	-229.225657	523.404787	1090.446860	76.107772	717.780810	915.341761	-65.727490	528.836266	1115.234251	-525.990950	719.662883	910.898530	-423.605008	-119.244722	1195.117714	-254.407905	56.618791	1250.923352	-376.359755	39.662363	1242.383630	-91.240151	83.452242	1176.567888	-350.921863	53.947560	1191.280796	-103.199753	-98.554800	1236.628095	-199.973799	-75.588308	1244.735018	-307.476116	-19.327501	1108.272127	-51.798781	10.412033	1097.643364	-416.654454	104.690868	989.753525	-54.573002	171.375557	934.803776	-70.140428	204.675903	856.089892	-75.304813	196.942422	956.190549	-87.734287	274.284028	744.312367	-111.831799	253.318220	724.341335	-211.735629	247.287768	605.004308	-79.804673	251.752865	516.825902	-98.287605	218.377044	437.519339	-87.647254	261.128106	518.274381	-137.710045	133.735145	234.660307	-106.713571	413.168533	315.588065	-129.236763	353.286780	257.606487	-57.160977	100.988078	1020.399388	-418.529680	186.082377	996.542827	-417.144345	204.100374	1026.651965	-408.027554	248.666962	933.189047	-413.706800	375.834580	813.656307	-383.272189	362.359445	794.481517	-283.325371	265.790764	713.163886	-402.349099	218.590110	642.878777	-387.000357	138.431837	601.959177	-394.767760	223.998338	640.236086	-345.297154	35.234108	522.590458	-397.706769	-35.486165	550.803994	-361.501822	124.666278	310.317554	-359.320413	55.721737	359.231503	-421.967005	-261.688019	965.320740	-236.505309	-82.406942	79.260785	-436.739988	-82.901117	78.897152	-39.260032	
